<?xml version="1.0" encoding="utf-8"?>
<!-- Uploaded to: SVG Repo, www.svgrepo.com, Generator: SVG Repo Mixer Tools -->
<svg fill="#ee7676" width="800px" height="800px" viewBox="0 0 32 32" version="1.1" xmlns="http://www.w3.org/2000/svg">
<title>flower-heart</title>
<path d="M23.301 17.203c-0.736-1.273-2.971-1.267-5.201 0.024-0.511 0.297-0.952 0.62-1.357 0.983l0.008-0.007v-1.915l5.83-6.47c1.118-1.009 1.817-2.464 1.817-4.082 0-0.439-0.052-0.866-0.149-1.275l0.008 0.037c-0.473-1.712-1.794-3.033-3.471-3.498l-0.035-0.008c-0.378-0.096-0.811-0.151-1.258-0.151-1.367 0-2.614 0.516-3.556 1.364l0.005-0.004c-0.86-0.745-1.989-1.199-3.225-1.199-1.384 0-2.634 0.569-3.531 1.486l-0.001 0.001c-0.883 0.866-1.444 2.057-1.492 3.379l-0 0.009c-0 0.015-0 0.032-0 0.050 0 1.508 0.637 2.867 1.656 3.824l0.003 0.003 5.899 6.535v5.077c-0.824-0.809-1.78-1.487-2.832-1.998l-0.064-0.028c-3.248-1.581-6.349-1.437-7.21 0.34-0.12 0.315-0.189 0.679-0.189 1.060 0 0.849 0.346 1.618 0.904 2.173l0 0c0.937 1.112 2.092 2.007 3.404 2.626l0.061 0.026c1.228 0.64 2.675 1.037 4.209 1.089l0.017 0h0.007c0.019 0 0.041 0 0.063 0 0.587 0 1.147-0.114 1.66-0.322l-0.030 0.011v3.657c0 0.414 0.336 0.75 0.75 0.75s0.75-0.336 0.75-0.75v0-7.421c0.224 0.056 0.482 0.088 0.747 0.089h0.001c1.184-0.051 2.275-0.406 3.209-0.989l-0.028 0.016c2.229-1.287 3.355-3.219 2.623-4.491zM15.187 24.568h-0.001c-0.179 0.367-0.787 0.586-1.629 0.586h-0.005c-1.312-0.055-2.533-0.396-3.619-0.96l0.048 0.023c-1.162-0.546-2.143-1.299-2.932-2.221l-0.010-0.012c-0.521-0.664-0.726-1.279-0.547-1.648 0.17-0.348 0.771-0.578 1.648-0.578 1.307 0.047 2.524 0.386 3.604 0.952l-0.046-0.022c1.162 0.546 2.142 1.299 2.932 2.221l0.010 0.012c0.521 0.664 0.726 1.281 0.547 1.648zM9.192 5.92c0.037-0.931 0.433-1.764 1.052-2.368l0.001-0.001c0.605-0.62 1.438-1.016 2.362-1.053l0.007-0 0.090-0.002c1.075 0.037 2.032 0.509 2.707 1.244l0.003 0.003c0.136 0.136 0.323 0.22 0.53 0.22s0.395-0.084 0.53-0.22v0c0.737-0.855 1.822-1.393 3.032-1.393 0.303 0 0.598 0.034 0.881 0.098l-0.027-0.005c1.194 0.329 2.116 1.25 2.44 2.42l0.006 0.024c0.059 0.256 0.092 0.551 0.092 0.854 0 1.21-0.538 2.295-1.388 3.028l-0.005 0.004-0.027 0.028-5.48 6.079-5.562-6.159c-0.762-0.696-1.24-1.692-1.245-2.8v-0.001zM19.93 20.397c-1.598 0.92-2.971 0.896-3.153 0.574-0.069-0.121-0.012-0.445 0.28-0.877 0.479-0.642 1.077-1.168 1.765-1.552l0.028-0.015c0.704-0.443 1.551-0.725 2.459-0.776l0.014-0.001c0.363 0 0.607 0.079 0.68 0.201 0.186 0.321-0.479 1.524-2.072 2.444z"></path>
</svg>